<?xml version="1.0" standalone="no"?>
<!DOCTYPE svg PUBLIC "-//W3C//DTD SVG 20010904//EN"
 "http://www.w3.org/TR/2001/REC-SVG-20010904/DTD/svg10.dtd">
<svg version="1.0" xmlns="http://www.w3.org/2000/svg"
 width="360.000000pt" height="360.000000pt" viewBox="0 0 360.000000 360.000000"
 preserveAspectRatio="xMidYMid meet">

<g transform="translate(0.000000,360.000000) scale(0.100000,-0.100000)"
fill="#000000" stroke="none">
<path d="M1881 3266 c-19 -76 -29 -216 -42 -578 -11 -300 -15 -348 -28 -352
-69 -18 -69 -18 -75 22 -3 20 -19 163 -36 317 -40 373 -64 505 -90 505 -13 0
-13 -284 0 -495 20 -306 50 -730 56 -773 3 -28 11 -45 22 -49 9 -4 20 -12 25
-19 4 -7 14 -11 22 -8 12 5 15 35 15 171 l0 165 -37 34 c-37 34 -37 34 -18 53
28 27 202 35 218 9 8 -13 5 -24 -16 -51 -27 -36 -32 -65 -18 -101 7 -19 8 -18
24 4 11 15 21 20 33 16 13 -5 15 -9 6 -18 -29 -29 -13 -38 64 -38 64 0 75 2
70 15 -3 8 -9 22 -12 30 -4 11 0 15 15 15 12 0 24 -7 27 -15 10 -25 24 -6 24
32 0 20 -9 50 -20 68 -18 30 -19 34 -4 46 24 20 195 13 211 -8 10 -13 13 -14
17 -2 7 21 64 475 81 639 23 230 18 339 -14 262 -12 -29 -107 -503 -142 -707
-11 -66 -21 -120 -22 -121 -1 -1 -21 -4 -44 -8 l-43 -6 0 47 c0 27 7 145 15
263 16 232 18 403 6 434 -11 28 -25 -69 -61 -419 -16 -159 -37 -329 -47 -377
-15 -80 -19 -88 -40 -88 -27 0 -27 -2 -9 42 8 18 18 62 21 95 8 69 -2 200 -15
187 -7 -8 -29 -137 -46 -269 -6 -50 -18 -75 -35 -75 -5 0 -9 205 -10 463 -1
254 -4 508 -8 564 -7 118 -22 148 -40 79z"/>
<path d="M1344 3045 c10 -143 33 -347 67 -599 16 -121 27 -221 25 -223 -8 -9
-45 17 -50 34 -3 10 -17 70 -31 133 -104 457 -194 759 -218 729 -15 -18 85
-588 149 -849 28 -112 54 -161 54 -102 0 18 5 32 10 32 6 0 10 -9 10 -21 0
-21 16 -21 83 -3 9 3 17 1 17 -4 0 -5 -19 -14 -42 -20 l-43 -11 46 4 47 4 -2
-37 c0 -20 3 -57 7 -82 l8 -45 -21 23 c-16 17 -25 20 -40 12 -19 -10 -19 -16
-4 -117 5 -31 7 -33 46 -33 38 0 40 1 34 25 -10 39 1 29 24 -21 l20 -47 62 7
c35 4 65 9 67 12 2 2 -2 10 -9 19 -8 10 -30 15 -61 15 -49 0 -49 0 -49 33 0
168 -173 1194 -207 1227 -3 3 -2 -40 1 -95z"/>
<path d="M866 2923 c3 -16 87 -220 185 -455 98 -234 179 -433 179 -440 0 -7
-14 -19 -31 -25 -24 -9 -30 -17 -27 -35 3 -24 11 -26 67 -13 23 5 31 4 27 -4
-4 -5 -22 -13 -41 -17 -20 -3 -38 -10 -41 -16 -6 -9 30 -3 72 13 29 10 34 3
34 -42 0 -35 -3 -39 -32 -49 l-33 -10 36 4 35 4 28 -74 c16 -41 26 -77 23 -80
-6 -6 -25 34 -46 97 -9 29 -16 36 -32 32 -29 -8 -31 -18 -14 -75 20 -68 21
-65 -21 -72 -26 -5 -34 -11 -30 -22 3 -9 6 -18 6 -20 0 -2 13 -4 30 -4 23 0
31 5 36 25 7 30 34 33 41 5 7 -26 53 -28 53 -3 0 15 2 14 14 -3 9 -12 2 31
-19 116 -42 163 -42 183 -5 107 22 -46 30 -55 37 -42 7 12 15 14 34 6 17 -7
19 -10 7 -10 -10 -1 -18 -4 -18 -8 0 -5 22 -6 50 -5 45 4 50 6 50 27 0 22 -3
24 -55 22 l-56 -2 -18 50 c-52 145 -459 982 -499 1028 -22 25 -33 21 -26 -10z"/>
<path d="M2651 2912 c-24 -48 -247 -578 -272 -647 -21 -58 -24 -109 -8 -154
14 -40 27 -39 44 2 35 85 264 757 270 795 9 54 -8 56 -34 4z"/>
<path d="M2861 2932 c-19 -35 -202 -485 -236 -580 -19 -51 -43 -105 -54 -121
-24 -34 -27 -51 -7 -51 7 0 28 -3 45 -6 24 -5 31 -3 31 10 0 9 4 16 9 16 22 0
156 414 206 634 24 109 26 135 6 98z"/>
<path d="M670 2838 c10 -42 300 -779 329 -835 11 -23 30 -47 41 -53 21 -11 65
-88 56 -97 -9 -9 -25 8 -87 95 -158 219 -424 570 -452 594 -82 71 -50 5 144
-288 107 -163 169 -266 184 -310 12 -36 30 -73 39 -83 9 -10 16 -30 16 -44 0
-15 5 -26 11 -24 6 1 30 -31 53 -72 22 -41 47 -76 55 -79 16 -5 20 -14 -52
125 -31 62 -57 116 -57 120 0 5 15 -10 34 -32 l34 -40 46 13 c61 16 66 15 66
-7 0 -24 11 -32 28 -22 14 9 -89 255 -268 636 -180 386 -244 501 -220 403z"/>
<path d="M2979 2569 c-101 -119 -289 -437 -289 -486 0 -13 5 -11 18 10 19 31
38 37 22 6 -6 -11 -10 -25 -8 -31 7 -19 188 283 282 470 41 82 30 96 -25 31z"/>
<path d="M3032 2513 c-104 -165 -444 -726 -453 -750 -13 -34 -4 -41 14 -11 12
18 479 804 494 831 2 4 2 7 0 7 -3 0 -27 -35 -55 -77z"/>
<path d="M370 2457 c0 -4 80 -122 178 -262 97 -140 190 -279 206 -310 16 -30
34 -55 40 -55 6 1 22 10 35 21 21 17 23 22 11 43 -20 38 -99 136 -110 136 -14
0 10 -61 27 -67 7 -3 20 -18 29 -34 12 -24 12 -29 1 -29 -8 0 -61 66 -118 148
-240 343 -299 423 -299 409z"/>
<path d="M1020 2319 c0 -3 34 -75 75 -160 41 -85 74 -151 75 -147 0 13 -59
157 -89 216 -29 56 -60 103 -61 91z"/>
<path d="M3018 2125 c-136 -167 -177 -227 -131 -194 38 27 133 142 201 242
121 180 112 173 -70 -48z"/>
<path d="M1573 2123 c8 -176 11 -193 43 -193 12 0 25 4 28 9 5 8 -37 269 -50
314 -3 9 -10 17 -16 17 -8 0 -9 -44 -5 -147z"/>
<path d="M1798 2263 c12 -2 32 -2 45 0 12 2 2 4 -23 4 -25 0 -35 -2 -22 -4z"/>
<path d="M2153 2263 c9 -2 23 -2 30 0 6 3 -1 5 -18 5 -16 0 -22 -2 -12 -5z"/>
<path d="M2248 2253 c12 -2 30 -2 40 0 9 3 -1 5 -23 4 -22 0 -30 -2 -17 -4z"/>
<path d="M390 2246 c0 -13 220 -281 329 -400 l44 -48 -6 36 c-6 37 -61 104
-268 324 -78 83 -99 101 -99 88z"/>
<path d="M2293 2184 c-31 -24 -33 -29 -34 -97 -1 -40 -3 -61 -6 -47 -11 70
-11 70 -58 70 -42 0 -44 -2 -50 -32 -3 -18 -7 -46 -8 -63 l-2 -30 63 0 c47 0
62 -3 62 -14 0 -11 -14 -13 -72 -9 -42 3 -62 2 -48 -2 14 -4 46 -8 73 -9 l47
-1 1 -37 c2 -49 -1 -113 -7 -138 l-4 -20 9 20 c5 11 21 106 36 210 14 105 28
198 31 208 7 22 5 22 -33 -9z"/>
<path d="M2535 2162 c6 -5 33 -12 60 -15 61 -8 39 7 -25 17 -28 4 -41 3 -35
-2z"/>
<path d="M3199 2086 c-25 -30 -79 -99 -120 -155 -68 -93 -77 -100 -109 -101
l-35 -2 33 -11 c18 -7 37 -18 41 -26 6 -9 10 -5 15 16 11 42 34 73 56 73 11 0
20 -6 20 -12 0 -7 11 5 23 27 13 22 46 76 74 120 82 130 83 167 2 71z"/>
<path d="M2453 2104 c-15 -26 -93 -222 -93 -233 0 -12 153 -31 186 -22 l29 7
-33 12 c-42 14 -41 26 2 18 l33 -6 7 61 c10 99 10 98 -21 90 -24 -6 -30 -16
-42 -69 -8 -34 -18 -62 -23 -62 -5 0 -7 8 -4 18 2 9 12 45 21 79 l17 61 36 -5
c25 -4 33 -3 28 5 -4 7 -18 12 -32 12 -18 0 -24 5 -25 23 0 12 -16 -23 -35
-78 -39 -111 -43 -118 -62 -106 -10 6 -9 24 8 89 12 45 20 92 18 105 -3 22 -4
22 -15 1z"/>
<path d="M360 2098 c0 -14 98 -157 197 -288 26 -34 33 -51 29 -72 l-5 -26 24
24 c24 24 68 32 91 16 6 -4 17 -18 24 -32 7 -14 15 -20 17 -13 7 21 -17 54
-47 65 -17 5 -59 45 -100 93 -110 132 -229 252 -230 233z"/>
<path d="M1774 2096 c-3 -7 -4 -33 -2 -57 3 -40 5 -44 28 -41 46 4 50 10 50
62 l0 50 -35 0 c-21 0 -38 -6 -41 -14z"/>
<path d="M2555 2100 c-3 -5 1 -10 9 -10 9 0 16 5 16 10 0 6 -4 10 -9 10 -6 0
-13 -4 -16 -10z"/>
<path d="M3294 1984 c-63 -64 -114 -120 -114 -125 0 -9 65 -39 84 -39 6 1 -5
10 -24 21 l-35 19 48 -6 c42 -6 47 -4 47 13 0 11 14 40 31 63 39 54 99 152 99
163 0 22 -34 -5 -136 -109z"/>
<path d="M1400 2050 c-11 -7 -5 -10 23 -10 23 0 36 4 32 10 -8 13 -35 13 -55
0z"/>
<path d="M1904 1991 c3 -18 6 -40 6 -47 0 -8 5 -14 10 -14 15 0 11 42 -6 70
l-15 25 5 -34z"/>
<path d="M2106 2003 c-4 -11 -13 -24 -21 -26 -9 -4 -13 -22 -13 -54 l0 -48 24
65 c13 36 22 70 20 75 -1 6 -6 0 -10 -12z"/>
<path d="M170 1996 c0 -26 79 -118 265 -306 123 -124 228 -234 234 -245 11
-17 12 -16 7 14 -5 29 -4 32 9 21 12 -10 15 -10 15 3 0 9 -49 59 -109 111 -60
53 -116 110 -124 128 -31 63 -297 309 -297 274z"/>
<path d="M2772 1948 c-28 -28 -7 -48 49 -48 27 0 30 3 27 28 -2 22 -9 28 -33
30 -17 2 -36 -3 -43 -10z"/>
<path d="M2136 1931 c-19 -7 -18 -8 5 -14 38 -11 95 -9 83 3 -14 14 -66 21
-88 11z"/>
<path d="M1960 1891 c-5 -11 -10 -38 -10 -61 0 -39 2 -41 26 -38 20 2 29 12
40 43 12 35 11 42 -3 57 -21 23 -40 23 -53 -1z"/>
<path d="M2148 1893 c7 -3 16 -2 19 1 4 3 -2 6 -13 5 -11 0 -14 -3 -6 -6z"/>
<path d="M2745 1891 c6 -5 30 -12 55 -15 31 -4 37 -3 20 2 -53 18 -85 24 -75
13z"/>
<path d="M2193 1883 c9 -2 25 -2 35 0 9 3 1 5 -18 5 -19 0 -27 -2 -17 -5z"/>
<path d="M1240 1870 c0 -5 9 -10 21 -10 11 0 17 5 14 10 -3 6 -13 10 -21 10
-8 0 -14 -4 -14 -10z"/>
<path d="M1781 1833 c0 -21 4 -46 8 -57 7 -17 9 -17 33 5 15 13 29 39 33 57 7
32 6 32 -34 32 -41 0 -41 0 -40 -37z"/>
<path d="M2113 1858 c-6 -7 -14 -32 -18 -54 -6 -40 -6 -41 26 -48 56 -11 96
-7 103 10 8 22 7 82 -1 87 -5 3 -29 8 -54 12 -32 5 -48 3 -56 -7z"/>
<path d="M2857 1804 c-27 -36 -46 -69 -42 -72 9 -9 63 48 80 85 29 61 11 55
-38 -13z"/>
<path d="M870 1845 c0 -5 5 -17 10 -25 5 -8 10 -10 10 -5 0 6 -5 17 -10 25 -5
8 -10 11 -10 5z"/>
<path d="M2328 1843 c6 -2 18 -2 25 0 6 3 1 5 -13 5 -14 0 -19 -2 -12 -5z"/>
<path d="M2408 1833 c7 -3 16 -2 19 1 4 3 -2 6 -13 5 -11 0 -14 -3 -6 -6z"/>
<path d="M2708 1813 c-29 -32 -48 -65 -48 -85 0 -7 18 7 40 31 22 25 40 53 40
63 0 23 -2 23 -32 -9z"/>
<path d="M2757 1833 c-13 -12 -7 -23 13 -23 13 0 18 5 14 15 -7 16 -17 19 -27
8z"/>
<path d="M3116 1766 c-39 -66 -44 -79 -34 -96 10 -16 9 -23 -11 -44 l-24 -25
29 -12 c16 -6 39 -15 50 -19 20 -8 23 -3 38 49 21 76 20 95 -6 115 -21 16 -21
17 -3 13 11 -3 28 -8 38 -12 10 -4 17 -3 17 4 0 6 -6 11 -12 11 -8 1 -6 6 5
14 10 8 15 20 11 30 -9 22 -24 20 -24 -3 0 -11 -4 -22 -9 -25 -15 -10 -20 5
-10 32 6 15 6 29 1 34 -6 6 -28 -20 -56 -66z"/>
<path d="M2740 1790 c0 -5 12 -10 28 -9 24 0 25 1 7 9 -27 12 -35 12 -35 0z"/>
<path d="M1452 1783 c-16 -3 -21 -10 -18 -21 3 -9 12 -60 21 -112 25 -155 19
-143 73 -135 26 4 48 8 50 10 6 5 -50 240 -60 253 -10 12 -23 13 -66 5z"/>
<path d="M2324 1775 c-4 -11 -15 -42 -26 -68 -22 -57 -22 -67 -5 -67 20 0 47
33 47 57 0 12 5 23 10 25 7 2 6 15 -4 38 -13 31 -15 33 -22 15z"/>
<path d="M2512 1759 c-30 -22 -42 -38 -42 -55 0 -22 4 -25 32 -22 29 3 34 8
45 48 7 25 12 48 10 53 -1 4 -21 -6 -45 -24z"/>
<path d="M2852 1635 c-34 -75 -62 -141 -62 -146 0 -5 7 -9 16 -9 18 0 46 25
37 34 -3 3 1 8 10 11 9 4 14 16 12 31 -1 15 3 24 11 24 8 0 11 6 8 15 -4 8 -1
15 5 15 6 0 8 7 5 15 -4 8 -2 15 3 15 10 0 43 63 43 83 0 7 -6 21 -13 31 -11
15 -20 1 -75 -119z"/>
<path d="M2707 1693 c-25 -68 -25 -68 -4 -76 38 -14 55 1 67 59 13 63 9 84
-19 84 -14 0 -25 -16 -44 -67z"/>
<path d="M1114 1735 c-3 -8 -3 -19 1 -25 11 -18 25 -11 25 15 0 27 -17 34 -26
10z"/>
<path d="M622 1728 c-27 -27 -6 -68 34 -68 28 0 46 23 42 52 -2 17 -10 24 -33
26 -17 2 -36 -3 -43 -10z"/>
<path d="M1875 1735 c23 -8 85 -10 85 -3 0 4 -21 8 -47 7 -27 0 -43 -2 -38 -4z"/>
<path d="M2088 1733 c6 -2 18 -2 25 0 6 3 1 5 -13 5 -14 0 -19 -2 -12 -5z"/>
<path d="M2153 1723 c15 -2 39 -2 55 0 15 2 2 4 -28 4 -30 0 -43 -2 -27 -4z"/>
<path d="M2378 1713 c7 -3 16 -2 19 1 4 3 -2 6 -13 5 -11 0 -14 -3 -6 -6z"/>
<path d="M953 1680 c-22 -34 -22 -35 -3 -38 21 -4 26 -17 10 -27 -21 -13 -9
-24 15 -13 27 12 30 19 16 34 -5 5 -11 25 -13 44 l-3 35 -22 -35z"/>
<path d="M1178 1698 c6 -6 18 -8 28 -6 14 3 12 5 -9 10 -19 3 -25 2 -19 -4z"/>
<path d="M1805 1697 c-4 -10 -5 -21 -1 -24 10 -10 18 4 13 24 -4 17 -4 17 -12
0z"/>
<path d="M2097 1704 c-4 -4 -7 -17 -7 -30 0 -20 5 -23 65 -26 61 -3 65 -2 65
19 0 12 -8 24 -17 27 -40 11 -99 17 -106 10z"/>
<path d="M881 1693 c0 -4 4 -17 9 -28 8 -19 9 -19 9 2 1 12 -3 25 -9 28 -5 3
-10 3 -9 -2z"/>
<path d="M2346 1659 c-7 -19 -17 -48 -20 -65 -7 -31 -7 -31 45 -38 28 -4 53
-5 56 -3 8 9 20 106 13 117 -4 6 -23 13 -43 17 -35 5 -38 4 -51 -28z"/>
<path d="M2580 1665 c47 -18 55 -18 40 0 -7 8 -27 15 -44 14 l-31 -1 35 -13z"/>
<path d="M747 1664 c-15 -15 -7 -44 12 -44 23 0 37 -16 46 -53 9 -32 16 -39
35 -27 13 8 7 16 -80 123 -3 4 -9 4 -13 1z"/>
<path d="M1695 1646 c-59 -19 -106 -46 -100 -56 11 -17 39 -11 102 22 86 45
85 61 -2 34z"/>
<path d="M1970 1650 c0 -17 27 -23 67 -15 27 5 33 9 22 16 -19 12 -89 11 -89
-1z"/>
<path d="M2960 1641 c0 -6 17 -7 38 -4 51 8 53 13 4 13 -23 0 -42 -4 -42 -9z"/>
<path d="M1101 1621 c-10 -7 -11 -13 -1 -30 15 -28 34 -22 38 12 3 28 -10 35
-37 18z"/>
<path d="M1810 1609 c-24 -11 -46 -22 -48 -24 -6 -6 23 -45 34 -45 20 0 65 42
60 55 -2 7 1 18 7 24 16 16 -1 13 -53 -10z"/>
<path d="M2470 1620 c20 -13 43 -13 35 0 -3 6 -16 10 -28 10 -18 0 -19 -2 -7
-10z"/>
<path d="M2965 1610 c-4 -6 5 -10 20 -10 15 0 24 4 20 10 -3 6 -12 10 -20 10
-8 0 -17 -4 -20 -10z"/>
<path d="M697 1603 c-12 -12 -7 -23 10 -23 15 0 14 -2 -3 -15 -18 -14 -18 -16
-2 -25 9 -6 15 -17 12 -24 -3 -7 2 -16 12 -20 13 -5 14 -9 5 -20 -10 -11 -8
-16 9 -21 16 -5 18 -10 10 -20 -8 -9 -6 -14 5 -19 11 -4 14 -13 10 -26 -5 -14
-2 -20 10 -20 12 0 15 -6 10 -20 -5 -16 -2 -20 16 -20 21 0 22 -1 4 -20 -18
-19 -17 -20 3 -20 25 0 28 -10 10 -29 -11 -11 -5 -13 32 -8 l44 6 -33 -21
c-32 -21 -33 -22 -12 -30 12 -4 19 -12 16 -18 -8 -13 4 -13 44 1 35 12 40 35
14 65 -10 10 -19 28 -21 39 -2 11 -12 32 -23 47 -10 15 -19 33 -19 40 0 18
-80 168 -106 201 -21 26 -44 34 -57 20z"/>
<path d="M2685 1590 c11 -5 29 -9 40 -9 l20 0 -20 9 c-11 5 -29 9 -40 9 l-20
0 20 -9z"/>
<path d="M975 1570 c-11 -13 -14 -20 -6 -20 18 0 51 19 51 30 0 17 -26 11 -45
-10z"/>
<path d="M3051 1564 c12 -15 11 -16 -6 -11 -11 3 -40 8 -65 11 -41 5 -38 3 25
-18 39 -12 84 -26 100 -29 l30 -7 -27 15 c-16 9 -28 18 -28 21 0 2 12 2 28 -1
25 -6 24 -4 -8 14 -45 26 -68 28 -49 5z"/>
<path d="M3195 1569 c-10 -15 -2 -19 23 -12 12 3 19 9 16 14 -7 12 -31 11 -39
-2z"/>
<path d="M2077 1563 c-4 -3 -7 -37 -7 -74 0 -57 3 -70 19 -79 29 -15 81 -13
81 4 0 7 7 19 15 26 8 7 15 29 15 50 0 36 -2 38 -56 59 -64 24 -59 23 -67 14z"/>
<path d="M1240 1516 c0 -45 1 -46 28 -40 36 9 36 9 26 46 -7 23 -17 34 -32 36
-20 3 -22 -1 -22 -42z"/>
<path d="M1005 1529 c-17 -11 -23 -19 -14 -19 17 0 57 26 49 33 -3 2 -18 -4
-35 -14z"/>
<path d="M2320 1540 c8 -5 28 -10 44 -10 39 0 30 6 -19 13 -27 4 -35 3 -25 -3z"/>
<path d="M2408 1523 c7 -3 16 -2 19 1 4 3 -2 6 -13 5 -11 0 -14 -3 -6 -6z"/>
<path d="M2920 1520 c0 -5 17 -10 38 -9 33 1 34 2 12 9 -36 11 -50 11 -50 0z"/>
<path d="M2305 1509 c-3 -4 6 -11 20 -14 14 -3 36 -7 50 -10 14 -3 25 -1 25 5
0 9 -12 13 -72 25 -10 2 -20 -1 -23 -6z"/>
<path d="M3014 1512 c-22 -15 -106 -174 -111 -210 l-5 -38 46 -11 47 -10 55
109 c30 60 51 114 47 121 -27 43 -53 57 -79 39z"/>
<path d="M1025 1490 c-25 -16 -27 -20 -10 -20 26 0 48 15 44 29 -3 7 -15 3
-34 -9z"/>
<path d="M1515 1496 c-40 -12 -40 -12 -12 -19 24 -7 97 15 97 29 0 8 -46 2
-85 -10z"/>
<path d="M3230 1480 c-9 -17 -7 -20 15 -26 14 -3 33 -3 42 1 16 6 16 8 -6 26
-29 24 -38 24 -51 -1z"/>
<path d="M1695 1480 c-93 -8 -241 -35 -285 -52 -24 -10 -24 -10 -4 -18 11 -4
50 -11 86 -15 55 -6 71 -4 106 14 22 11 67 23 99 26 110 11 125 15 114 29 -6
7 -8 16 -4 19 3 4 0 6 -8 6 -8 -1 -55 -5 -104 -9z"/>
<path d="M2613 1483 c5 -4 52 -24 105 -44 93 -35 97 -36 106 -17 14 29 -4 39
-90 49 -44 5 -90 12 -104 15 -14 3 -21 2 -17 -3z"/>
<path d="M2305 1470 c19 -8 83 -14 74 -6 -2 2 -24 6 -49 9 -30 4 -38 3 -25 -3z"/>
<path d="M1040 1440 c-14 -11 -19 -20 -12 -20 19 0 52 19 52 30 0 15 -12 12
-40 -10z"/>
<path d="M1270 1445 c-13 -16 -12 -22 20 -86 5 -9 4 -21 -1 -26 -6 -6 -5 -14
5 -22 8 -7 12 -19 9 -27 -3 -8 0 -21 7 -29 6 -8 9 -19 6 -24 -4 -6 3 -15 15
-22 21 -11 21 -12 4 -21 -24 -14 -2 -28 43 -28 31 0 42 12 22 25 -6 4 -8 10
-5 15 3 4 -15 64 -39 132 -43 124 -60 145 -86 113z"/>
<path d="M2398 1453 c7 -3 16 -2 19 1 4 3 -2 6 -13 5 -11 0 -14 -3 -6 -6z"/>
<path d="M2292 1438 c-15 -19 -33 -91 -24 -100 4 -4 35 -11 69 -14 l61 -7 9
44 c11 52 4 65 -40 74 -18 4 -39 9 -48 11 -9 2 -21 -1 -27 -8z"/>
<path d="M3181 1367 c-18 -29 -18 -33 -4 -41 12 -6 21 -2 34 15 22 29 24 45 5
52 -9 4 -22 -6 -35 -26z"/>
<path d="M1648 1344 c-19 -18 -1 -22 105 -20 61 0 128 0 147 -2 61 -6 270 10
270 21 0 5 -18 7 -46 2 -59 -8 -347 -9 -417 0 -28 4 -55 3 -59 -1z"/>
<path d="M3146 1304 c-9 -23 -8 -24 14 -24 23 0 26 13 6 29 -11 9 -15 8 -20
-5z"/>
<path d="M2293 1303 c9 -2 23 -2 30 0 6 3 -1 5 -18 5 -16 0 -22 -2 -12 -5z"/>
<path d="M2353 1293 c9 -2 25 -2 35 0 9 3 1 5 -18 5 -19 0 -27 -2 -17 -5z"/>
<path d="M2264 1273 c-30 -30 1 -50 79 -52 25 -1 40 4 44 14 7 21 3 24 -56 40
-45 12 -53 11 -67 -2z"/>
<path d="M912 1152 c-172 -69 -308 -130 -304 -134 5 -5 33 1 63 13 30 11 107
39 172 60 128 42 387 161 387 178 0 6 -1 11 -2 10 -2 0 -144 -58 -316 -127z"/>
<path d="M2588 1273 c-49 -8 -30 -20 53 -31 90 -13 161 -41 200 -78 19 -18 63
-36 143 -59 64 -18 116 -29 116 -24 0 23 -174 118 -296 162 -72 26 -166 39
-216 30z"/>
<path d="M1598 1252 c-10 -2 -18 -10 -18 -18 0 -24 19 -54 34 -54 12 0 41 -58
34 -66 -2 -1 -27 2 -57 7 -142 22 -352 -43 -443 -138 -26 -27 -27 -29 -9 -40
17 -10 23 -7 45 22 59 77 185 135 293 135 32 0 86 -10 129 -25 41 -14 77 -25
80 -25 8 0 0 46 -15 85 -6 17 -16 49 -21 71 -10 43 -22 53 -52 46z"/>
<path d="M2890 1240 c27 -21 40 -25 40 -12 0 9 -44 32 -58 32 -4 0 4 -9 18
-20z"/>
<path d="M1880 1227 c0 -13 5 -28 11 -34 8 -8 8 -13 0 -17 -8 -5 -11 -86 -10
-254 2 -196 3 -229 10 -158 4 49 12 92 17 95 6 3 12 22 15 41 2 21 5 8 6 -35
8 -190 18 -181 20 16 1 173 -1 209 -14 219 -9 7 -15 28 -14 49 1 35 1 35 10
10 l10 -27 77 34 c42 18 110 39 150 46 39 6 72 15 72 19 0 27 -171 15 -247
-16 -47 -20 -51 -19 -45 10 4 23 1 25 -32 25 -31 0 -36 -3 -36 -23z"/>
<path d="M2400 1202 c0 -4 24 -20 54 -34 30 -15 84 -55 120 -89 65 -60 67 -61
86 -44 11 10 20 22 20 27 0 12 -134 96 -198 125 -54 24 -82 29 -82 15z"/>
<path d="M2222 1082 c-13 -65 -13 -65 15 -95 l28 -29 -32 7 c-18 3 -33 3 -33
-2 0 -4 -20 -120 -45 -258 -51 -282 -51 -282 -31 -266 7 6 19 39 25 72 9 43
16 59 26 55 10 -3 18 25 35 117 14 82 32 142 52 184 17 34 28 69 25 77 -4 10
6 22 28 34 27 17 35 29 44 73 6 28 10 53 9 54 -2 2 -32 12 -69 22 l-65 20 -12
-65z m-35 -364 c-2 -13 -4 -5 -4 17 -1 22 1 32 4 23 2 -10 2 -28 0 -40z"/>
<path d="M948 1049 c-44 -20 -46 -23 -36 -45 6 -13 20 -24 30 -24 40 0 55 -18
62 -72 10 -77 66 -168 66 -108 0 11 5 20 10 20 6 0 10 -7 10 -15 0 -9 9 -15
25 -15 14 0 25 5 25 11 0 19 -21 49 -34 49 -24 0 -49 50 -43 86 5 32 4 34 -24
34 -34 0 -34 1 -13 41 12 24 13 34 3 45 -15 18 -25 17 -81 -7z"/>
<path d="M2702 927 c-85 -161 -153 -297 -147 -297 2 0 17 24 31 53 45 87 40
32 -6 -64 -23 -48 -40 -93 -38 -99 2 -6 28 31 58 82 56 97 220 414 220 426 0
4 -13 8 -29 9 -28 2 -33 -4 -89 -110z"/>
<path d="M1384 1020 c-12 -5 -25 -13 -28 -19 -11 -18 12 -48 44 -59 16 -6 30
-12 30 -14 0 -2 7 -66 15 -143 8 -77 15 -143 15 -147 0 -5 3 -8 8 -8 4 0 6 36
4 80 -3 51 0 80 6 80 6 0 24 -28 41 -62 38 -81 38 -63 0 84 -25 92 -35 118
-49 118 -26 0 -30 10 -14 36 22 33 10 64 -24 63 -15 0 -37 -4 -48 -9z"/>
<path d="M1687 933 c-12 -11 -7 -63 13 -152 21 -87 34 -120 44 -110 5 5 -41
259 -48 267 -2 1 -6 -1 -9 -5z"/>
<path d="M2278 826 c-5 -27 -8 -61 -8 -75 1 -22 2 -24 11 -8 5 9 9 43 7 75
l-3 57 -7 -49z"/>
<path d="M1903 570 c0 -36 2 -50 4 -32 2 17 2 47 0 65 -2 17 -4 3 -4 -33z"/>
<path d="M2207 583 c-4 -3 -6 -38 -6 -77 l2 -71 7 75 c8 79 7 84 -3 73z"/>
<path d="M1666 374 c-11 -29 -6 -37 12 -21 12 11 36 17 65 17 l47 0 0 -143 c0
-98 -4 -147 -12 -155 -9 -9 -1 -12 37 -12 46 0 47 1 32 18 -14 15 -17 42 -17
155 l0 137 629 0 c559 0 631 -2 645 -16 15 -14 16 -13 16 10 l0 26 -724 0
c-651 0 -724 -2 -730 -16z"/>
<path d="M440 358 c-78 -41 -102 -132 -57 -218 32 -60 73 -80 169 -80 106 0
108 1 108 70 0 33 5 62 10 65 21 13 8 20 -35 20 -28 0 -39 -2 -30 -8 10 -5 15
-25 15 -63 0 -50 -2 -55 -26 -64 -54 -21 -139 14 -174 72 -25 41 -26 110 -3
149 22 36 87 69 137 69 30 0 45 -7 71 -33 l33 -33 4 33 c5 40 -2 43 -101 43
-60 0 -86 -5 -121 -22z"/>
<path d="M756 227 c-21 -56 -46 -110 -54 -119 -14 -17 -13 -18 12 -18 15 0 25
4 21 10 -3 5 1 25 9 45 13 31 19 35 50 35 32 0 38 -4 51 -36 8 -20 12 -40 9
-45 -3 -5 12 -9 32 -9 33 0 35 2 21 13 -9 6 -37 59 -63 117 -25 58 -47 106
-48 107 -1 1 -19 -44 -40 -100z m63 -24 c1 -7 -10 -13 -24 -13 -28 0 -31 11
-13 61 l11 33 13 -34 c7 -19 13 -41 13 -47z"/>
<path d="M2150 318 c0 -4 5 -10 10 -13 13 -8 13 -171 0 -196 -10 -17 -7 -19
27 -19 29 0 34 3 25 12 -7 7 -12 29 -12 51 0 35 2 38 23 32 12 -4 40 -26 62
-50 41 -45 78 -64 90 -45 3 5 0 10 -9 10 -8 0 -32 21 -55 46 l-40 45 20 32
c39 65 13 97 -80 100 -33 1 -61 -1 -61 -5z m108 -20 c7 -7 12 -26 12 -43 0
-37 -16 -55 -47 -55 -21 0 -23 4 -23 55 0 51 2 55 23 55 13 0 28 -5 35 -12z"/>
<path d="M2412 310 c-37 -23 -52 -54 -52 -109 0 -71 90 -130 166 -109 74 20
108 82 83 152 -27 78 -124 110 -197 66z m48 -100 c0 -55 -4 -100 -9 -100 -5 0
-21 14 -35 31 -36 42 -36 110 -1 144 13 14 29 25 35 25 6 0 10 -37 10 -100z
m87 85 c28 -20 47 -78 39 -120 -6 -31 -46 -75 -67 -75 -5 0 -9 47 -9 105 0 58
3 105 8 105 4 0 17 -7 29 -15z m-50 -132 c-2 -27 -3 -5 -3 47 0 52 1 74 3 48
2 -27 2 -69 0 -95z m-20 5 c-2 -24 -4 -5 -4 42 0 47 2 66 4 43 2 -24 2 -62 0
-85z"/>
<path d="M2650 224 c0 -72 -4 -114 -12 -122 -9 -9 -3 -12 28 -12 31 1 36 3 22
11 -15 8 -18 24 -18 92 l0 82 93 -93 c51 -50 95 -92 99 -92 4 0 8 52 10 115
l3 115 -25 -1 c-14 0 -19 -3 -12 -6 13 -5 18 -163 5 -163 -4 0 -49 42 -100 92
l-93 93 0 -111z"/>
<path d="M2942 313 c5 -6 8 -58 6 -117 l-3 -106 56 0 c41 0 58 4 63 15 6 18
-5 20 -21 4 -7 -7 -23 -9 -37 -5 -24 6 -26 11 -26 57 l0 51 33 -3 c17 -2 32 1
32 6 0 5 -15 8 -32 6 -33 -3 -33 -2 -33 43 0 44 1 46 28 46 15 0 33 -5 40 -12
9 -9 12 -8 12 8 0 17 -7 19 -64 19 -48 0 -62 -3 -54 -12z"/>
<path d="M3142 314 c-34 -24 -27 -54 28 -111 55 -57 57 -64 34 -87 -20 -21
-53 -20 -76 1 -16 15 -18 15 -18 0 0 -24 28 -35 67 -27 81 19 85 62 11 137
-51 51 -51 53 -33 73 22 24 38 25 58 5 13 -12 16 -12 20 -1 3 8 3 17 0 20 -12
12 -69 6 -91 -10z"/>
<path d="M977 299 c-3 -13 -9 -55 -13 -94 -3 -38 -10 -80 -15 -92 -7 -20 -5
-23 14 -23 20 0 23 4 19 35 -6 48 8 134 17 115 4 -8 25 -46 46 -84 l37 -68 47
83 46 84 8 -82 c8 -78 10 -83 32 -83 23 0 23 1 10 27 -8 14 -17 67 -21 116
l-7 91 -23 -30 c-13 -16 -36 -57 -50 -91 -15 -35 -30 -63 -34 -63 -3 0 -21 31
-39 68 -18 37 -41 79 -51 91 l-17 24 -6 -24z"/>
<path d="M1285 205 l0 -116 59 3 c39 2 61 8 64 16 3 11 0 12 -18 2 -12 -6 -33
-9 -46 -6 -21 6 -24 12 -24 58 l0 51 40 -6 c29 -4 40 -2 40 8 0 10 -11 12 -40
8 l-40 -6 0 47 c0 44 1 46 28 46 15 0 33 -5 40 -12 9 -9 12 -8 12 5 0 14 -10
17 -57 17 l-58 0 0 -115z"/>
<path d="M1895 205 c0 -108 1 -115 20 -115 18 0 20 5 17 60 l-4 60 72 0 72 0
-4 -60 -4 -60 30 0 c21 0 27 3 18 9 -10 6 -13 35 -10 115 l3 106 -30 -1 c-16
0 -24 -3 -17 -6 7 -2 12 -22 12 -44 l0 -39 -73 0 -72 0 3 45 c3 38 1 45 -14
45 -17 0 -19 -10 -19 -115z"/>
<path d="M1475 246 c-24 -17 -24 -69 0 -96 24 -26 85 -27 108 -2 21 23 22 61
1 90 -18 26 -79 31 -109 8z m41 -51 c0 -60 -11 -67 -36 -23 -11 21 -12 31 -2
52 20 45 37 32 38 -29z m54 39 c27 -31 11 -93 -22 -94 -5 0 -8 25 -8 55 0 56
8 67 30 39z"/>
<path d="M1618 195 c2 -41 8 -65 15 -65 8 0 11 20 10 59 -3 58 -2 60 25 64 20
3 17 4 -13 6 l-40 1 3 -65z"/>
<path d="M1660 200 c0 -5 7 -10 16 -10 8 0 12 5 9 10 -3 6 -10 10 -16 10 -5 0
-9 -4 -9 -10z"/>
</g>
</svg>
